<svg enable-background="new 0 0 512 512" height="512" viewBox="0 0 512 512" width="512" xmlns="http://www.w3.org/2000/svg"><path d="m468.336 454.484-127.895-127.894c59.331-66.677 57.052-169.224-6.857-233.132-32.108-32.109-74.8-49.793-120.208-49.793-45.409 0-88.1 17.684-120.208 49.792-66.283 66.284-66.283 174.135 0 240.418 32.109 32.108 74.8 49.792 120.208 49.792 42.058 0 81.779-15.181 112.925-42.933l127.893 127.893c1.953 1.952 4.512 2.929 7.071 2.929s5.118-.977 7.071-2.929c3.905-3.905 3.905-10.237 0-14.143zm-361.026-134.752c-58.485-58.485-58.485-153.647 0-212.133 28.331-28.331 66-43.935 106.066-43.935s77.734 15.604 106.065 43.935c58.485 58.485 58.485 153.647 0 212.133-28.331 28.332-65.999 43.935-106.065 43.935-40.067 0-77.735-15.603-106.066-43.935z"/></svg>